<!--?xml version="1.0" standalone="no"?-->
<svg id="sw-js-blob-svg" viewBox="0 0 100 100" xmlns="http://www.w3.org/2000/svg" version="1.1">
    <defs> 
        <linearGradient id="sw-gradient" x1="0" x2="1" y1="1" y2="0">
            <stop id="stop1" stop-color="rgba(20.294, 143.026, 210.792, 1)" offset="0%"></stop>
            <stop id="stop2" stop-color="rgba(90.783, 255, 213.274, 1)" offset="100%"></stop>
        </linearGradient>
    </defs>
<path fill="url(#sw-gradient)" d="M23.7,-29.4C29.7,-23.2,33,-14.8,35.5,-5.5C38.1,3.8,40.1,14.1,36.5,21.8C32.9,29.5,23.7,34.8,14.7,36.1C5.7,37.5,-3.1,35.1,-12.3,32.4C-21.6,29.6,-31.2,26.6,-36.1,20C-41,13.3,-41.1,3,-39.2,-6.7C-37.2,-16.4,-33.2,-25.6,-26.3,-31.6C-19.5,-37.7,-9.7,-40.5,-0.4,-40C8.8,-39.5,17.7,-35.5,23.7,-29.4Z" width="100%" height="100%" transform="translate(50 50)" style="transition: all 0.3s ease 0s;" stroke-width="0"></path>
</svg>